<svg xmlns="http://www.w3.org/2000/svg" viewBox="0 0 682.93 140.03"><defs><style>.cls-1{fill:#4d4e4e;}.cls-2{fill:#5dc5cb;}.cls-3{fill:#687fbb;}.cls-4{fill:#f2853e;}.cls-5{fill:#f8cf55;}.cls-6{fill:none;}.cls-7{fill:#9f539e;}.cls-8{fill:#e85657;}.cls-9{fill:#fff;}</style></defs><g id="Layer_2" data-name="Layer 2"><g id="Layer_1-2" data-name="Layer 1"><path class="cls-1" d="M274.57,115h-13.8v-7.71s-5.1,9.2-17.78,9.2c-15.29,0-28.72-12.81-28.72-31s13.43-31,28.72-31a21,21,0,0,1,16.66,7.71V31h14.92Zm-14.92-38.3a16.34,16.34,0,0,0-14-8.2c-10.07,0-16.16,7.33-16.16,17s6.09,17,16.16,17a16.34,16.34,0,0,0,14-8.2Z"/><path class="cls-1" d="M341.21,115h-13.8v-7.71s-5.1,9.2-17.78,9.2c-15.29,0-28.72-12.81-28.72-31s13.43-31,28.72-31a21,21,0,0,1,16.66,7.71V31h14.92Zm-14.92-38.3a16.34,16.34,0,0,0-14.05-8.2c-10.07,0-16.16,7.33-16.16,17s6.09,17,16.16,17a16.34,16.34,0,0,0,14.05-8.2Z"/><path class="cls-1" d="M391.93,56.42l-5.22,13.42a17.17,17.17,0,0,0-7.08-1.36c-9.08,0-13.18,8-13.18,8V115H351.53V56.05H365.7v8.57s5.1-10.07,16-10.07A31.92,31.92,0,0,1,391.93,56.42Z"/><path class="cls-1" d="M448.87,85.26c0,1.12,0,3.36-.13,5.6h-44c1.12,5.22,7.21,11.93,16.53,11.93a23.74,23.74,0,0,0,16.17-6L444.89,108a37.76,37.76,0,0,1-23.63,8.46c-17.9,0-31.7-13.68-31.7-31s12.56-31,29.59-31C435.31,54.55,448.87,67.11,448.87,85.26ZM434,80c-.25-5.1-5-11.94-14.8-11.94-9.57,0-13.92,6.72-14.42,11.94Z"/><path class="cls-1" d="M458.06,95s7.84,8.45,17.78,8.45c6.1,0,11.19-1.74,11.19-5.34,0-3.86-2.73-4.6-11.68-6.47-11.69-2.49-21.89-7.46-21.89-18.65,0-9.2,9.21-18.4,25.37-18.4A37.62,37.62,0,0,1,501,61.76L493.5,72.71s-6.72-5.1-14.67-5.1c-5.6,0-10.7,2-10.7,5.59s4,4.48,13.93,6.59c11.69,2.49,20,6.34,20,18.53,0,10.06-10.7,18.15-25.74,18.15-17.28,0-26.61-10.7-26.61-10.7Z"/><path class="cls-1" d="M511.77,95s7.83,8.45,17.78,8.45c6.09,0,11.19-1.74,11.19-5.34,0-3.86-2.74-4.6-11.69-6.47-11.69-2.49-21.88-7.46-21.88-18.65,0-9.2,9.2-18.4,25.36-18.4a37.59,37.59,0,0,1,22.13,7.21l-7.45,10.95s-6.72-5.1-14.68-5.1c-5.59,0-10.69,2-10.69,5.59s4,4.48,13.93,6.59c11.68,2.49,20,6.34,20,18.53,0,10.06-10.69,18.15-25.73,18.15-17.28,0-26.61-10.7-26.61-10.7Z"/><path class="cls-1" d="M575.93,140l9.19-23.69L556.4,56.05h16.54l19.89,43.14,15.54-43.14h16L591.1,140Z"/><path class="cls-1" d="M207.85,115h-13.8v-7.71s-5.09,9.2-17.77,9.2c-15.3,0-28.72-12.81-28.72-31s13.42-31,28.72-31a21,21,0,0,1,16.66,7.71V56.05h14.91Zm-14.91-38.3a16.34,16.34,0,0,0-14.05-8.2c-10.07,0-16.17,7.33-16.17,17s6.1,17,16.17,17a16.34,16.34,0,0,0,14.05-8.2Z"/><path class="cls-1" d="M682.93,115h-13.8v-7.71s-5.1,9.2-17.78,9.2c-15.29,0-28.72-12.81-28.72-31s13.43-31,28.72-31A21,21,0,0,1,668,62.26V56.05h14.92ZM668,76.68a16.34,16.34,0,0,0-14-8.2c-10.07,0-16.16,7.33-16.16,17s6.09,17,16.16,17a16.34,16.34,0,0,0,14-8.2Z"/><path class="cls-2" d="M29.84,64.72,34.51,66h0l21.22,5.73-7-25.9a15.35,15.35,0,0,0-4-6.81A15.38,15.38,0,0,0,23,39a15.38,15.38,0,0,0,6.81,25.7Z"/><path class="cls-3" d="M37.26,94.17h0l17-16.92-27-7.19-.83-.22A16.54,16.54,0,1,0,33.8,97.6Z"/><path class="cls-4" d="M124.85,58.34a20.47,20.47,0,0,0-34.19-9.26l-3.47,3.44h0L65.33,74.27l34.54,9.18a20.5,20.5,0,0,0,10.49,0,20.48,20.48,0,0,0,14.49-25.08ZM102.94,71.55a8.19,8.19,0,1,1,10-5.79A8.2,8.2,0,0,1,102.94,71.55Z"/><path class="cls-5" d="M52.67,37.86h0l8.6,32.35L88.31,43.05a22,22,0,1,0-36.87-9.88ZM74.81,19.69a8.19,8.19,0,1,1-10,5.79A8.2,8.2,0,0,1,74.81,19.69Z"/><path class="cls-6" d="M23,60.76a15.35,15.35,0,0,0,6.81,4L34.51,66h0l21.22,5.73-7-25.9a15.35,15.35,0,0,0-4-6.81A15.38,15.38,0,0,0,23,39,15.38,15.38,0,0,0,23,60.76Z"/><path class="cls-6" d="M37.26,94.18l17-16.92-27-7.19-.83-.22A16.54,16.54,0,1,0,33.8,97.6l3.46-3.43Z"/><path class="cls-6" d="M52.67,37.86h0l8.6,32.35L88.31,43.05a22,22,0,1,0-36.87-9.88Z"/><path class="cls-6" d="M93.07,99a8.19,8.19,0,1,0,5.79,10A8.21,8.21,0,0,0,93.07,99Z"/><path class="cls-6" d="M122.8,73.88a20.48,20.48,0,0,0-32.14-24.8l-3.47,3.44h0L65.33,74.27l34.54,9.18a20.5,20.5,0,0,0,10.49,0A20.29,20.29,0,0,0,122.8,73.88Z"/><path class="cls-7" d="M65,106.59h0L58.31,81.31,37,102.67l-.6.61a17.77,17.77,0,1,0,29.82,8Z"/><path class="cls-8" d="M96,88.52l-4.7-1.28h0L63.85,79.82l8.44,31.24.24.91A19.09,19.09,0,1,0,96,88.52ZM88.83,114.8a8.19,8.19,0,1,1,10-5.79A8.2,8.2,0,0,1,88.83,114.8Z"/><path class="cls-9" d="M70.57,35.51a8.19,8.19,0,1,0-5.79-10A8.2,8.2,0,0,0,70.57,35.51Z"/><circle class="cls-9" cx="105.06" cy="63.64" r="8.19" transform="translate(-15.35 39.39) rotate(-19.82)"/><path class="cls-9" d="M93.07,99a8.19,8.19,0,1,0,5.79,10A8.21,8.21,0,0,0,93.07,99Z"/><path class="cls-9" d="M130.28,56.88a26.13,26.13,0,0,0-32-18.46l-.26.07a28.18,28.18,0,0,0,1.31-3.75A27.6,27.6,0,0,0,46,20.46,28.19,28.19,0,0,0,45.2,30c0,.33.21,1.2.51,2.49A21,21,0,0,0,18.36,64q-1,.17-1.92.42a22.16,22.16,0,0,0,10.77,43,23.39,23.39,0,1,0,44.33,14.81,24.71,24.71,0,1,0,36.94-32.72,27.39,27.39,0,0,0,3.34-.66,26.12,26.12,0,0,0,18.46-32Zm-78.81-35A22,22,0,1,1,88.31,43.05L61.26,70.21l-8.6-32.35h0l-1.23-4.69A21.93,21.93,0,0,1,51.47,21.91ZM23,39a15.38,15.38,0,0,1,25.7,6.81l7,25.9L34.51,66h0l-4.67-1.27A15.38,15.38,0,0,1,23,39Zm3.42,62.8a16.54,16.54,0,1,1-.08-32l.83.22,27.05,7.19-17,16.92h0L33.8,97.6A16.42,16.42,0,0,1,26.45,101.82Zm39.78,18.56a17.78,17.78,0,1,1-29.8-17.1l.6-.61L58.31,81.31,65,106.59h0l1.23,4.68A17.81,17.81,0,0,1,66.23,120.38Zm38.21,0A19.09,19.09,0,0,1,72.53,112l-.24-.91L63.85,79.82l27.44,7.41h0L96,88.52a19.08,19.08,0,0,1,8.46,31.9ZM122.8,73.88a20.29,20.29,0,0,1-12.44,9.54,20.5,20.5,0,0,1-10.49,0L65.33,74.27,87.19,52.51h0l3.47-3.44a20.48,20.48,0,0,1,32.14,24.8Z"/><path class="cls-9" d="M32.36,55.66a6,6,0,1,0-4.23-7.31A6,6,0,0,0,32.36,55.66Z"/><path class="cls-9" d="M24.08,78.73a7.37,7.37,0,1,0,5.21,9A7.39,7.39,0,0,0,24.08,78.73Z"/><path class="cls-9" d="M51.05,108.68a7.37,7.37,0,1,0,5.22,9A7.38,7.38,0,0,0,51.05,108.68Z"/></g></g></svg>