<svg id="noun_region_3743836" xmlns="http://www.w3.org/2000/svg" width="11.594" height="11.594" viewBox="0 0 11.594 11.594">
  <path id="Path_11" data-name="Path 11" d="M17.374,7.56H15.588V6.67h2.231a.442.442,0,0,1,.445.445V9.346h-.89Zm0,8.028h.89v2.231a.442.442,0,0,1-.445.445H15.588v-.89h1.786ZM9.346,17.374v.89H7.115a.442.442,0,0,1-.445-.445V15.588h.89v1.786ZM7.56,7.56V9.346H6.67V7.115a.442.442,0,0,1,.445-.445H9.4v.89Zm3.569-.89H13.8v.89H11.129Zm0,10.7H13.8v.89H11.129ZM6.67,11.129h.89V13.8H6.67Zm10.7,0h.89V13.8h-.89Z" transform="translate(-6.67 -6.67)" fill="#ffffff"/>
</svg>
