<?xml version="1.0" standalone="no"?>
<!DOCTYPE svg PUBLIC "-//W3C//DTD SVG 20010904//EN"
 "http://www.w3.org/TR/2001/REC-SVG-20010904/DTD/svg10.dtd">
<svg version="1.0" xmlns="http://www.w3.org/2000/svg"
 width="64.000000pt" height="64.000000pt" viewBox="0 0 64.000000 64.000000"
 preserveAspectRatio="xMidYMid meet">

<g transform="translate(0.000000,64.000000) scale(0.100000,-0.100000)"
fill="#000000" stroke="none">
<path d="M57 503 c-20 -19 5 -47 123 -137 103 -78 134 -97 152 -92 13 3 75 47
138 96 84 67 115 97 115 113 0 22 0 22 -261 25 -143 1 -263 -1 -267 -5z"/>
<path d="M50 303 l0 -127 70 69 c38 38 70 72 70 76 0 6 -95 82 -127 102 -10 6
-13 -18 -13 -120z"/>
<path d="M520 379 c-36 -28 -66 -54 -68 -58 -1 -3 29 -38 68 -76 l70 -69 0
127 c0 70 -1 127 -2 127 -2 0 -32 -23 -68 -51z"/>
<path d="M132 222 c-46 -43 -80 -81 -76 -85 9 -9 518 -9 528 0 7 7 -143 163
-157 163 -5 0 -24 -12 -43 -27 -45 -33 -82 -33 -126 0 -19 15 -37 27 -39 27
-2 -1 -41 -36 -87 -78z"/>
</g>
</svg>
