<?xml version="1.0" encoding="utf-8"?>
<!-- Generator: Adobe Illustrator 25.4.1, SVG Export Plug-In . SVG Version: 6.00 Build 0)  -->
<svg version="1.1" id="Layer_1" xmlns="http://www.w3.org/2000/svg" xmlns:xlink="http://www.w3.org/1999/xlink" x="0px" y="0px"
	 viewBox="0 0 10.2 11.9" style="enable-background:new 0 0 10.2 11.9;" xml:space="preserve">
<style type="text/css">
	.st0{fill:#ffffff;}
</style>
<g>
	<path class="st0" d="M7.8,11.3V0H2.4v11.3H0v0.6h10.2v-0.6H7.8z M7.2,0.6v10.7H3V0.6H7.2z"/>
	<path class="st0" d="M5,3.1H3.4v2.1H5V3.1z M4.6,4.8H3.8V3.4h0.8V4.8z"/>
	<path class="st0" d="M6.8,3.1H5.3v2.1h1.5V3.1z M6.5,4.8H5.7V3.4h0.8V4.8z"/>
	<path class="st0" d="M5,6.8H3.4v2H5V6.8z M4.6,8.5H3.8V7.2h0.8V8.5z"/>
	<path class="st0" d="M6.8,6.8H5.3v2h1.5V6.8z M6.5,8.5H5.7V7.2h0.8V8.5z"/>
</g>
</svg>
