<svg xmlns="http://www.w3.org/2000/svg" width="22.429" height="31.238" viewBox="0 0 22.429 31.238">
  <g id="Component_1183_42" data-name="Component 1183 – 42" transform="translate(0.5 0.5)">
    <path id="Icon_ionic-md-pin" data-name="Icon ionic-md-pin" d="M17.464,2.25A10.64,10.64,0,0,0,6.75,12.75c0,7.875,10.714,19.5,10.714,19.5s10.714-11.625,10.714-19.5A10.64,10.64,0,0,0,17.464,2.25Zm0,14.25a3.751,3.751,0,1,1,3.827-3.75A3.752,3.752,0,0,1,17.464,16.5Z" transform="translate(-6.75 -2.25)" fill="#137731" stroke="#137731" stroke-width="1"/>
    <g id="Layer_2" data-name="Layer 2" transform="translate(4.714 3.334)">
      <path id="Path_228" data-name="Path 228" d="M66.093,124.184l.527.144h0l2.395.647-.79-2.923a1.735,1.735,0,1,0-2.132,2.132Z" transform="translate(-63.899 -116.786)" fill="#5ec4ca"/>
      <path id="Path_229" data-name="Path 229" d="M23.254,245.34h0l1.917-1.909-3.052-.811-.095-.025a1.867,1.867,0,1,0,.839,3.132Z" transform="translate(-20.223 -234.618)" fill="#697fb9"/>
      <path id="Path_230" data-name="Path 230" d="M235.337,152.718a2.311,2.311,0,0,0-3.859-1.045l-.392.387h0l-2.467,2.456,3.9,1.035a2.312,2.312,0,0,0,2.819-2.834Zm-2.472,1.491a.924.924,0,1,1,1.132-.654A.924.924,0,0,1,232.865,154.209Z" transform="translate(-222.421 -146.039)" fill="#f1843f"/>
      <path id="Path_231" data-name="Path 231" d="M177.761,23.364h0l.971,3.652,3.053-3.064a2.48,2.48,0,1,0-4.161-1.115Zm2.5-2.051a.924.924,0,1,1-1.132.654A.924.924,0,0,1,180.259,21.313Z" transform="translate(-172.99 -18.998)" fill="#f7ce56"/>
      <path id="Path_232" data-name="Path 232" d="M65.326,123.746a1.732,1.732,0,0,0,.769.446l.527.144h0l2.395.647-.79-2.923a1.735,1.735,0,1,0-2.9,1.685Z" transform="translate(-63.901 -116.794)" fill="none"/>
      <path id="Path_233" data-name="Path 233" d="M23.255,245.341l1.917-1.909-3.052-.811-.095-.025a1.867,1.867,0,1,0,.839,3.132l.391-.387Z" transform="translate(-20.223 -234.618)" fill="none"/>
      <path id="Path_234" data-name="Path 234" d="M177.761,23.364h0l.971,3.652,3.053-3.064a2.48,2.48,0,1,0-4.161-1.115Z" transform="translate(-172.99 -18.998)" fill="none"/>
      <path id="Path_235" data-name="Path 235" d="M290.811,345.4a.924.924,0,1,0,.655,1.132A.924.924,0,0,0,290.811,345.4Z" transform="translate(-281.481 -334.135)" fill="none"/>
      <path id="Path_236" data-name="Path 236" d="M235.106,154.465a2.312,2.312,0,0,0-3.628-2.8l-.392.387h0l-2.467,2.456,3.9,1.035a2.311,2.311,0,0,0,2.588-1.08Z" transform="translate(-222.421 -146.033)" fill="none"/>
      <path id="Path_237" data-name="Path 237" d="M113.255,287.393h0l-.759-2.853-2.4,2.411-.068.069a2.006,2.006,0,1,0,3.366.9Z" transform="translate(-107.091 -275.269)" fill="#9e539d"/>
      <path id="Path_238" data-name="Path 238" d="M227.037,280.331l-.531-.145h0l-3.1-.836.954,3.525.028.1a2.154,2.154,0,1,0,2.646-2.646Zm-.806,2.965a.924.924,0,1,1,1.133-.654.924.924,0,0,1-1.133.654Z" transform="translate(-217.379 -270.246)" fill="#e75658"/>
      <path id="Union_8" data-name="Union 8" d="M3.576,14.787a2.638,2.638,0,0,1-.465-2.664A2.5,2.5,0,0,1,1.895,7.27a2.194,2.194,0,0,1,.217-.047A2.371,2.371,0,0,1,5.2,3.666c-.034-.144-.053-.242-.057-.279a3.212,3.212,0,0,1,.094-1.08A3.114,3.114,0,1,1,11.1,4.341c.011,0,.021-.006.03-.008a2.948,2.948,0,0,1,1.526,5.694,3.071,3.071,0,0,1-.376.074,2.789,2.789,0,1,1-4.169,3.693,2.641,2.641,0,0,1-4.539.992Zm.645-3.2-.068.067a2.006,2.006,0,1,0,3.363,1.93h0a1.988,1.988,0,0,0,0-1.026l-.14-.529L6.619,9.175Zm3.978.945.028.1a2.155,2.155,0,1,0,2.647-2.647l-.531-.146-3.1-.837ZM1.01,8.621a1.866,1.866,0,0,0,2.845,2.392l.392-.386,1.917-1.91L3.11,7.905,3.016,7.88a1.844,1.844,0,0,0-.472-.061A1.867,1.867,0,0,0,1.01,8.621Zm9.262-3.085-.392.388L7.414,8.38l3.9,1.035A2.31,2.31,0,0,0,13.9,8.335h0a2.311,2.311,0,0,0-3.628-2.8Zm-8.084.537A1.731,1.731,0,0,0,3.407,7.3l.527.145,2.394.646L5.54,5.169A1.733,1.733,0,0,0,2.64,4.4h0A1.734,1.734,0,0,0,2.188,6.073ZM8.024.645a2.474,2.474,0,0,0-2.178,3.1l.136.528.972,3.652,3.053-3.064A2.48,2.48,0,0,0,8.245.635C8.172.635,8.1.638,8.024.645ZM5.372,13.874a.832.832,0,1,1,.216.028A.859.859,0,0,1,5.372,13.874Zm4.7-.919a.921.921,0,1,1,.24.032A.966.966,0,0,1,10.068,12.955ZM2.326,10.491a.832.832,0,1,1,.217.028A.862.862,0,0,1,2.326,10.491Zm8.7-3A.928.928,0,1,1,11.9,8.1.927.927,0,0,1,11.028,7.495ZM3.691,6.28a.673.673,0,1,1,.176.023A.682.682,0,0,1,3.691,6.28ZM8,4a.926.926,0,1,1,.24.032A.873.873,0,0,1,8,4Z" transform="translate(-1.214 0.097)" fill="#fff"/>
    </g>
  </g>
</svg>
